<svg xmlns="http://www.w3.org/2000/svg" xmlns:xlink="http://www.w3.org/1999/xlink" width="105" zoomAndPan="magnify" viewBox="0 0 78.75 30.000001" height="40" preserveAspectRatio="xMidYMid meet" version="1.0"><defs><g/><clipPath id="8b629707b5"><path d="M 1.148438 3.582031 L 22.023438 3.582031 L 22.023438 25.085938 L 1.148438 25.085938 Z M 1.148438 3.582031 " clip-rule="nonzero"/></clipPath></defs><g clip-path="url(#8b629707b5)"><path fill="#2e7d32" d="M 10.761719 16.136719 C 10.671875 16.054688 10.664062 15.914062 10.746094 15.824219 L 12.328125 14.0625 C 12.410156 13.972656 12.554688 13.964844 12.644531 14.046875 C 12.734375 14.128906 12.742188 14.269531 12.660156 14.359375 L 11.078125 16.121094 C 11.035156 16.171875 10.972656 16.195312 10.910156 16.195312 C 10.859375 16.195312 10.804688 16.175781 10.761719 16.136719 Z M 13.046875 13.597656 C 12.957031 13.515625 12.949219 13.375 13.03125 13.285156 L 13.296875 12.984375 C 13.378906 12.894531 13.523438 12.886719 13.613281 12.96875 C 13.703125 13.050781 13.710938 13.191406 13.628906 13.285156 L 13.363281 13.582031 C 13.316406 13.632812 13.257812 13.65625 13.195312 13.65625 C 13.144531 13.65625 13.089844 13.636719 13.046875 13.597656 Z M 13.121094 6.792969 C 13.148438 6.671875 13.265625 6.59375 13.386719 6.621094 L 14.832031 6.929688 C 14.953125 6.957031 15.027344 7.074219 15.003906 7.195312 C 14.980469 7.300781 14.886719 7.371094 14.785156 7.371094 C 14.769531 7.371094 14.753906 7.371094 14.738281 7.367188 L 13.292969 7.054688 C 13.171875 7.03125 13.097656 6.910156 13.121094 6.792969 Z M 15.015625 8.066406 C 15.042969 8.1875 14.96875 8.308594 14.851562 8.335938 L 13.417969 8.6875 C 13.398438 8.691406 13.382812 8.695312 13.363281 8.695312 C 13.261719 8.695312 13.171875 8.628906 13.148438 8.523438 C 13.117188 8.40625 13.191406 8.285156 13.308594 8.253906 L 14.746094 7.902344 C 14.863281 7.875 14.984375 7.949219 15.015625 8.066406 Z M 13.902344 5.140625 C 13.972656 5.039062 14.113281 5.015625 14.214844 5.085938 L 15.359375 5.90625 C 15.460938 5.976562 15.484375 6.117188 15.414062 6.214844 C 15.367188 6.277344 15.300781 6.308594 15.230469 6.308594 C 15.1875 6.308594 15.140625 6.296875 15.101562 6.269531 L 13.953125 5.449219 C 13.855469 5.378906 13.832031 5.238281 13.902344 5.140625 Z M 15.054688 4.339844 C 14.996094 4.234375 15.035156 4.097656 15.144531 4.039062 C 15.253906 3.980469 15.386719 4.019531 15.445312 4.128906 L 16.121094 5.367188 C 16.179688 5.472656 16.140625 5.609375 16.03125 5.667969 C 15.996094 5.6875 15.960938 5.695312 15.925781 5.695312 C 15.84375 5.695312 15.769531 5.652344 15.730469 5.578125 Z M 18.328125 5.769531 L 19.398438 4.851562 C 19.492188 4.769531 19.632812 4.78125 19.710938 4.875 C 19.792969 4.964844 19.78125 5.109375 19.6875 5.1875 L 18.621094 6.105469 C 18.578125 6.144531 18.527344 6.160156 18.476562 6.160156 C 18.414062 6.160156 18.351562 6.136719 18.304688 6.082031 C 18.226562 5.992188 18.234375 5.847656 18.328125 5.769531 Z M 17.523438 5.300781 L 18.082031 4.007812 C 18.128906 3.894531 18.261719 3.84375 18.375 3.890625 C 18.488281 3.941406 18.539062 4.070312 18.492188 4.183594 L 17.933594 5.476562 C 17.898438 5.5625 17.816406 5.613281 17.726562 5.613281 C 17.699219 5.613281 17.667969 5.605469 17.640625 5.59375 C 17.527344 5.546875 17.472656 5.414062 17.523438 5.300781 Z M 16.59375 5.234375 L 16.53125 3.828125 C 16.523438 3.703125 16.621094 3.597656 16.742188 3.59375 C 16.867188 3.585938 16.96875 3.683594 16.976562 3.804688 L 17.039062 5.214844 C 17.046875 5.335938 16.949219 5.441406 16.828125 5.445312 C 16.824219 5.445312 16.820312 5.445312 16.816406 5.445312 C 16.699219 5.445312 16.597656 5.351562 16.59375 5.234375 Z M 11.949219 24.71875 C 12.496094 22.613281 14.417969 21.113281 16.617188 21.113281 C 17.390625 21.113281 18.148438 21.296875 18.832031 21.648438 C 17.074219 23.464844 14.644531 24.621094 11.949219 24.71875 Z M 1.636719 16.367188 C 2.671875 16.019531 3.753906 15.84375 4.855469 15.84375 C 6.285156 15.84375 7.675781 16.140625 8.957031 16.710938 C 8.957031 16.714844 8.960938 16.714844 8.964844 16.714844 C 9.441406 16.929688 9.902344 17.179688 10.34375 17.46875 C 10.226562 17.554688 10.109375 17.644531 9.996094 17.738281 C 8.242188 19.15625 6.980469 21.113281 6.414062 23.28125 C 3.960938 21.804688 2.148438 19.316406 1.636719 16.367188 Z M 16.617188 17.953125 C 14.722656 17.953125 12.886719 18.628906 11.445312 19.855469 C 10.085938 21.011719 9.152344 22.589844 8.796875 24.328125 C 8.105469 24.125 7.441406 23.851562 6.816406 23.511719 C 7.929688 18.988281 11.933594 15.84375 16.617188 15.84375 C 18.285156 15.84375 19.925781 16.257812 21.386719 17.039062 C 21.214844 17.742188 20.96875 18.414062 20.65625 19.050781 C 19.433594 18.332031 18.042969 17.953125 16.617188 17.953125 Z M 11.488281 24.726562 C 10.714844 24.71875 9.957031 24.621094 9.226562 24.441406 C 9.933594 20.929688 13.007812 18.398438 16.617188 18.398438 C 17.972656 18.398438 19.292969 18.761719 20.453125 19.449219 C 20.085938 20.117188 19.648438 20.742188 19.144531 21.308594 C 18.371094 20.886719 17.503906 20.667969 16.617188 20.667969 C 14.171875 20.667969 12.042969 22.363281 11.488281 24.726562 Z M 14.171875 11.136719 L 16.492188 13.660156 C 16.503906 13.671875 16.515625 13.679688 16.527344 13.691406 C 16.53125 13.691406 16.535156 13.695312 16.539062 13.695312 C 16.546875 13.703125 16.554688 13.707031 16.5625 13.710938 C 16.570312 13.714844 16.578125 13.71875 16.585938 13.71875 C 16.59375 13.722656 16.597656 13.722656 16.605469 13.726562 C 16.613281 13.726562 16.621094 13.726562 16.628906 13.730469 C 16.632812 13.730469 16.640625 13.730469 16.648438 13.730469 C 16.65625 13.730469 16.664062 13.730469 16.667969 13.730469 C 16.675781 13.730469 16.683594 13.730469 16.691406 13.730469 C 16.703125 13.726562 16.714844 13.722656 16.730469 13.71875 C 16.746094 13.714844 16.761719 13.707031 16.773438 13.699219 L 18.722656 12.519531 L 21.65625 15.269531 C 21.628906 15.71875 21.570312 16.15625 21.484375 16.589844 C 19.992188 15.808594 18.316406 15.398438 16.617188 15.398438 C 14.523438 15.398438 12.464844 16.03125 10.734375 17.191406 C 10.308594 16.90625 9.867188 16.652344 9.410156 16.429688 Z M 2.429688 12.507812 C 2.429688 11.769531 2.558594 10.800781 2.761719 10.039062 C 3.023438 9.035156 3.289062 8.808594 3.359375 8.808594 C 3.433594 8.808594 3.695312 9.035156 3.960938 10.039062 C 4.160156 10.800781 4.289062 11.769531 4.289062 12.507812 C 4.289062 13.035156 3.960938 13.316406 3.582031 13.394531 L 3.582031 12.4375 C 3.582031 12.316406 3.484375 12.214844 3.359375 12.214844 C 3.238281 12.214844 3.136719 12.316406 3.136719 12.4375 L 3.136719 13.394531 C 2.757812 13.316406 2.429688 13.035156 2.429688 12.507812 Z M 6.015625 13.191406 C 6.015625 12.613281 6.113281 11.878906 6.265625 11.269531 C 6.460938 10.492188 6.664062 10.269531 6.722656 10.25 C 6.785156 10.269531 6.984375 10.492188 7.183594 11.269531 C 7.335938 11.878906 7.429688 12.613281 7.429688 13.191406 C 7.429688 13.566406 7.210938 13.777344 6.945312 13.851562 L 6.945312 13.136719 C 6.945312 13.011719 6.847656 12.910156 6.722656 12.910156 C 6.601562 12.910156 6.5 13.011719 6.5 13.136719 L 6.5 13.851562 C 6.234375 13.777344 6.015625 13.566406 6.015625 13.191406 Z M 16.898438 8.886719 C 16.191406 8.886719 15.617188 8.3125 15.617188 7.605469 C 15.617188 6.898438 16.191406 6.324219 16.898438 6.324219 C 17.605469 6.324219 18.179688 6.898438 18.179688 7.605469 C 18.179688 8.3125 17.605469 8.886719 16.898438 8.886719 Z M 20.984375 9.863281 C 20.265625 8.449219 19.214844 7.191406 17.945312 6.226562 C 17.9375 6.222656 17.925781 6.214844 17.917969 6.210938 C 17.632812 6 17.28125 5.878906 16.898438 5.878906 C 15.945312 5.878906 15.171875 6.652344 15.171875 7.605469 C 15.171875 8.558594 15.945312 9.332031 16.898438 9.332031 C 17.851562 9.332031 18.625 8.558594 18.625 7.605469 C 18.625 7.53125 18.621094 7.457031 18.613281 7.386719 C 20.574219 9.28125 21.675781 11.859375 21.675781 14.632812 C 21.675781 14.648438 21.675781 14.660156 21.675781 14.675781 L 18.90625 12.078125 C 18.832031 12.007812 18.722656 11.996094 18.636719 12.046875 L 16.699219 13.222656 L 14.335938 10.652344 C 14.292969 10.605469 14.230469 10.582031 14.171875 10.582031 C 14.105469 10.582031 14.046875 10.609375 14.003906 10.65625 L 8.984375 16.238281 C 8.328125 15.957031 7.644531 15.746094 6.945312 15.605469 L 6.945312 14.308594 C 7.4375 14.21875 7.878906 13.839844 7.878906 13.191406 C 7.878906 12.445312 7.601562 9.800781 6.722656 9.800781 C 5.847656 9.800781 5.570312 12.445312 5.570312 13.191406 C 5.570312 13.839844 6.007812 14.21875 6.5 14.308594 L 6.5 15.527344 C 5.960938 15.441406 5.410156 15.398438 4.855469 15.398438 C 4.425781 15.398438 4.003906 15.425781 3.582031 15.472656 L 3.582031 13.847656 C 4.1875 13.757812 4.738281 13.300781 4.738281 12.507812 C 4.738281 11.328125 4.328125 8.363281 3.359375 8.363281 C 2.394531 8.363281 1.984375 11.328125 1.984375 12.507812 C 1.984375 13.300781 2.535156 13.757812 3.136719 13.847656 L 3.136719 15.539062 C 2.515625 15.640625 1.90625 15.796875 1.3125 16.007812 C 1.214844 16.042969 1.148438 16.144531 1.167969 16.253906 C 1.546875 18.710938 2.796875 20.96875 4.691406 22.605469 C 6.601562 24.261719 9.050781 25.171875 11.582031 25.171875 C 17.394531 25.171875 22.121094 20.445312 22.121094 14.632812 C 22.121094 12.953125 21.738281 11.351562 20.984375 9.863281 " fill-opacity="1" fill-rule="nonzero"/></g><g fill="#303030" fill-opacity="1"><g transform="translate(26.018852, 18.087347)"><g><path d="M 7.671875 -7.046875 C 7.671875 -6.035156 7.328125 -5.257812 6.640625 -4.71875 C 5.953125 -4.175781 4.96875 -3.90625 3.6875 -3.90625 L 2.515625 -3.90625 L 2.515625 0 L 1.359375 0 L 1.359375 -9.9375 L 3.9375 -9.9375 C 6.425781 -9.9375 7.671875 -8.972656 7.671875 -7.046875 Z M 2.515625 -4.90625 L 3.5625 -4.90625 C 4.582031 -4.90625 5.320312 -5.066406 5.78125 -5.390625 C 6.238281 -5.722656 6.46875 -6.253906 6.46875 -6.984375 C 6.46875 -7.640625 6.253906 -8.128906 5.828125 -8.453125 C 5.398438 -8.773438 4.726562 -8.9375 3.8125 -8.9375 L 2.515625 -8.9375 Z M 2.515625 -4.90625 "/></g></g></g><g fill="#303030" fill-opacity="1"><g transform="translate(37.847601, 18.087347)"><g><path d="M 1.359375 0 L 1.359375 -9.9375 L 2.515625 -9.9375 L 2.515625 -1.046875 L 6.90625 -1.046875 L 6.90625 0 Z M 1.359375 0 "/></g></g></g><g fill="#303030" fill-opacity="1"><g transform="translate(48.52132, 18.087347)"><g><path d="M 8.546875 0 L 7.1875 0 L 3.5625 -4.8125 L 2.515625 -3.890625 L 2.515625 0 L 1.359375 0 L 1.359375 -9.9375 L 2.515625 -9.9375 L 2.515625 -5.015625 L 7.03125 -9.9375 L 8.390625 -9.9375 L 4.390625 -5.625 Z M 8.546875 0 "/></g></g></g><g fill="#303030" fill-opacity="1"><g transform="translate(60.513132, 18.087347)"><g><path d="M 1.359375 0 L 1.359375 -9.9375 L 2.515625 -9.9375 L 2.515625 0 Z M 1.359375 0 "/></g></g></g><g fill="#303030" fill-opacity="1"><g transform="translate(67.84406, 18.087347)"><g><path d="M 4.421875 0 L 3.265625 0 L 3.265625 -8.90625 L 0.125 -8.90625 L 0.125 -9.9375 L 7.578125 -9.9375 L 7.578125 -8.90625 L 4.421875 -8.90625 Z M 4.421875 0 "/></g></g></g><g fill="#303030" fill-opacity="1"><g transform="translate(26.772805, 24.56848)"><g><path d="M 2 -1.828125 C 2 -1.566406 1.90625 -1.363281 1.71875 -1.21875 C 1.539062 -1.082031 1.289062 -1.015625 0.96875 -1.015625 L 0.65625 -1.015625 L 0.65625 0 L 0.359375 0 L 0.359375 -2.59375 L 1.03125 -2.59375 C 1.675781 -2.59375 2 -2.335938 2 -1.828125 Z M 0.65625 -1.28125 L 0.921875 -1.28125 C 1.191406 -1.28125 1.382812 -1.320312 1.5 -1.40625 C 1.625 -1.488281 1.6875 -1.625 1.6875 -1.8125 C 1.6875 -1.988281 1.628906 -2.117188 1.515625 -2.203125 C 1.398438 -2.285156 1.226562 -2.328125 1 -2.328125 L 0.65625 -2.328125 Z M 0.65625 -1.28125 "/></g></g></g><g fill="#303030" fill-opacity="1"><g transform="translate(31.845312, 24.56848)"><g><path d="M 0.359375 0 L 0.359375 -2.59375 L 0.65625 -2.59375 L 0.65625 -0.265625 L 1.796875 -0.265625 L 1.796875 0 Z M 0.359375 0 "/></g></g></g><g fill="#303030" fill-opacity="1"><g transform="translate(36.617554, 24.56848)"><g><path d="M 1.984375 0 L 1.65625 -0.828125 L 0.625 -0.828125 L 0.296875 0 L 0 0 L 1.015625 -2.59375 L 1.28125 -2.59375 L 2.296875 0 Z M 1.5625 -1.09375 L 1.265625 -1.890625 C 1.222656 -1.992188 1.179688 -2.117188 1.140625 -2.265625 C 1.117188 -2.148438 1.082031 -2.023438 1.03125 -1.890625 L 0.734375 -1.09375 Z M 1.5625 -1.09375 "/></g></g></g><g fill="#303030" fill-opacity="1"><g transform="translate(41.801335, 24.56848)"><g><path d="M 2.375 0 L 2.03125 0 L 0.625 -2.171875 L 0.609375 -2.171875 C 0.628906 -1.921875 0.640625 -1.6875 0.640625 -1.46875 L 0.640625 0 L 0.359375 0 L 0.359375 -2.59375 L 0.703125 -2.59375 L 2.109375 -0.421875 L 2.125 -0.421875 C 2.113281 -0.453125 2.101562 -0.550781 2.09375 -0.71875 C 2.09375 -0.894531 2.09375 -1.023438 2.09375 -1.109375 L 2.09375 -2.59375 L 2.375 -2.59375 Z M 2.375 0 "/></g></g></g><g fill="#303030" fill-opacity="1"><g transform="translate(47.423147, 24.56848)"><g><path d="M 1.15625 0 L 0.84375 0 L 0.84375 -2.328125 L 0.03125 -2.328125 L 0.03125 -2.59375 L 1.96875 -2.59375 L 1.96875 -2.328125 L 1.15625 -2.328125 Z M 1.15625 0 "/></g></g></g><g fill="#303030" fill-opacity="1"><g transform="translate(52.319027, 24.56848)"><g><path d="M 0.734375 -2.078125 C 0.734375 -1.992188 0.753906 -1.914062 0.796875 -1.84375 C 0.835938 -1.769531 0.910156 -1.679688 1.015625 -1.578125 C 1.171875 -1.660156 1.273438 -1.738281 1.328125 -1.8125 C 1.390625 -1.894531 1.421875 -1.984375 1.421875 -2.078125 C 1.421875 -2.171875 1.390625 -2.242188 1.328125 -2.296875 C 1.265625 -2.359375 1.1875 -2.390625 1.09375 -2.390625 C 0.976562 -2.390625 0.890625 -2.359375 0.828125 -2.296875 C 0.765625 -2.242188 0.734375 -2.171875 0.734375 -2.078125 Z M 1 -0.234375 C 1.289062 -0.234375 1.53125 -0.320312 1.71875 -0.5 L 0.9375 -1.25 C 0.8125 -1.164062 0.71875 -1.097656 0.65625 -1.046875 C 0.601562 -0.992188 0.5625 -0.9375 0.53125 -0.875 C 0.507812 -0.820312 0.5 -0.753906 0.5 -0.671875 C 0.5 -0.535156 0.546875 -0.425781 0.640625 -0.34375 C 0.734375 -0.269531 0.851562 -0.234375 1 -0.234375 Z M 0.203125 -0.671875 C 0.203125 -0.828125 0.242188 -0.960938 0.328125 -1.078125 C 0.410156 -1.191406 0.554688 -1.3125 0.765625 -1.4375 C 0.660156 -1.550781 0.585938 -1.632812 0.546875 -1.6875 C 0.515625 -1.75 0.488281 -1.8125 0.46875 -1.875 C 0.445312 -1.9375 0.4375 -2 0.4375 -2.0625 C 0.4375 -2.238281 0.492188 -2.375 0.609375 -2.46875 C 0.734375 -2.570312 0.894531 -2.625 1.09375 -2.625 C 1.289062 -2.625 1.441406 -2.570312 1.546875 -2.46875 C 1.660156 -2.375 1.71875 -2.238281 1.71875 -2.0625 C 1.71875 -1.9375 1.675781 -1.820312 1.59375 -1.71875 C 1.507812 -1.613281 1.378906 -1.503906 1.203125 -1.390625 L 1.921875 -0.703125 C 1.984375 -0.773438 2.035156 -0.859375 2.078125 -0.953125 C 2.117188 -1.054688 2.148438 -1.164062 2.171875 -1.28125 L 2.46875 -1.28125 C 2.394531 -0.945312 2.273438 -0.691406 2.109375 -0.515625 L 2.640625 0 L 2.234375 0 L 1.90625 -0.3125 C 1.769531 -0.1875 1.628906 -0.0976562 1.484375 -0.046875 C 1.335938 0.00390625 1.175781 0.03125 1 0.03125 C 0.75 0.03125 0.550781 -0.03125 0.40625 -0.15625 C 0.269531 -0.28125 0.203125 -0.453125 0.203125 -0.671875 Z M 0.203125 -0.671875 "/></g></g></g><g fill="#303030" fill-opacity="1"><g transform="translate(57.854296, 24.56848)"><g><path d="M 2 -1.828125 C 2 -1.566406 1.90625 -1.363281 1.71875 -1.21875 C 1.539062 -1.082031 1.289062 -1.015625 0.96875 -1.015625 L 0.65625 -1.015625 L 0.65625 0 L 0.359375 0 L 0.359375 -2.59375 L 1.03125 -2.59375 C 1.675781 -2.59375 2 -2.335938 2 -1.828125 Z M 0.65625 -1.28125 L 0.921875 -1.28125 C 1.191406 -1.28125 1.382812 -1.320312 1.5 -1.40625 C 1.625 -1.488281 1.6875 -1.625 1.6875 -1.8125 C 1.6875 -1.988281 1.628906 -2.117188 1.515625 -2.203125 C 1.398438 -2.285156 1.226562 -2.328125 1 -2.328125 L 0.65625 -2.328125 Z M 0.65625 -1.28125 "/></g></g></g><g fill="#303030" fill-opacity="1"><g transform="translate(62.926803, 24.56848)"><g><path d="M 0.359375 0 L 0.359375 -2.59375 L 0.65625 -2.59375 L 0.65625 -0.265625 L 1.796875 -0.265625 L 1.796875 0 Z M 0.359375 0 "/></g></g></g><g fill="#303030" fill-opacity="1"><g transform="translate(67.699045, 24.56848)"><g><path d="M 2.3125 -2.59375 L 2.3125 -0.90625 C 2.3125 -0.613281 2.222656 -0.382812 2.046875 -0.21875 C 1.867188 -0.0507812 1.625 0.03125 1.3125 0.03125 C 1 0.03125 0.753906 -0.0507812 0.578125 -0.21875 C 0.410156 -0.382812 0.328125 -0.617188 0.328125 -0.921875 L 0.328125 -2.59375 L 0.625 -2.59375 L 0.625 -0.90625 C 0.625 -0.6875 0.679688 -0.519531 0.796875 -0.40625 C 0.921875 -0.289062 1.097656 -0.234375 1.328125 -0.234375 C 1.546875 -0.234375 1.710938 -0.289062 1.828125 -0.40625 C 1.953125 -0.519531 2.015625 -0.6875 2.015625 -0.90625 L 2.015625 -2.59375 Z M 2.3125 -2.59375 "/></g></g></g><g fill="#303030" fill-opacity="1"><g transform="translate(73.227247, 24.56848)"><g><path d="M 1.8125 -0.6875 C 1.8125 -0.457031 1.726562 -0.28125 1.5625 -0.15625 C 1.40625 -0.03125 1.179688 0.03125 0.890625 0.03125 C 0.585938 0.03125 0.351562 -0.00390625 0.1875 -0.078125 L 0.1875 -0.375 C 0.289062 -0.332031 0.40625 -0.296875 0.53125 -0.265625 C 0.65625 -0.242188 0.78125 -0.234375 0.90625 -0.234375 C 1.101562 -0.234375 1.253906 -0.269531 1.359375 -0.34375 C 1.460938 -0.414062 1.515625 -0.519531 1.515625 -0.65625 C 1.515625 -0.75 1.492188 -0.820312 1.453125 -0.875 C 1.421875 -0.9375 1.363281 -0.988281 1.28125 -1.03125 C 1.195312 -1.082031 1.066406 -1.140625 0.890625 -1.203125 C 0.648438 -1.285156 0.476562 -1.382812 0.375 -1.5 C 0.269531 -1.625 0.21875 -1.78125 0.21875 -1.96875 C 0.21875 -2.164062 0.289062 -2.320312 0.4375 -2.4375 C 0.59375 -2.5625 0.796875 -2.625 1.046875 -2.625 C 1.296875 -2.625 1.53125 -2.578125 1.75 -2.484375 L 1.65625 -2.21875 C 1.445312 -2.3125 1.238281 -2.359375 1.03125 -2.359375 C 0.875 -2.359375 0.75 -2.320312 0.65625 -2.25 C 0.570312 -2.1875 0.53125 -2.09375 0.53125 -1.96875 C 0.53125 -1.875 0.546875 -1.796875 0.578125 -1.734375 C 0.609375 -1.679688 0.660156 -1.628906 0.734375 -1.578125 C 0.816406 -1.535156 0.941406 -1.488281 1.109375 -1.4375 C 1.378906 -1.332031 1.5625 -1.222656 1.65625 -1.109375 C 1.757812 -1.003906 1.8125 -0.863281 1.8125 -0.6875 Z M 1.8125 -0.6875 "/></g></g></g></svg>